<svg width="152" height="40" viewBox="0 0 152 40" fill="none" xmlns="http://www.w3.org/2000/svg">
<g clip-path="url(#clip0_22_2)">
<g clip-path="url(#clip1_22_2)">
<g clip-path="url(#clip2_22_2)">
<mask id="mask0_22_2" style="mask-type:luminance" maskUnits="userSpaceOnUse" x="0" y="0" width="152" height="40">
<path d="M151.579 0.53125H0V39.522H151.579V0.53125Z" fill="#172C29"/>
</mask>
<g mask="url(#mask0_22_2)">
<path d="M48.6445 9.73438H51.6936L56.9906 22.661H57.1874L62.4845 9.73438H65.5335V26.3704H63.1448V14.329H62.9903L58.0866 26.3423H56.1055L51.2018 14.329H51.0473V26.3704H48.6586V9.73438H48.6445Z" fill="#1F2B22"/>
<path d="M72.5294 26.6088C71.307 26.6088 70.2392 26.3419 69.3539 25.822C68.4688 25.288 67.7803 24.5433 67.3026 23.5879C66.8249 22.6324 66.5859 21.4943 66.5859 20.2016C66.5859 18.923 66.8249 17.799 67.3026 16.8294C67.7803 15.86 68.4547 15.1012 69.3118 14.5532C70.1689 14.0053 71.1806 13.7383 72.3468 13.7383C73.0493 13.7383 73.7378 13.8507 74.3981 14.0897C75.0586 14.3285 75.6487 14.6938 76.1826 15.1855C76.7025 15.6773 77.124 16.3237 77.4191 17.1246C77.7281 17.9114 77.8687 18.8809 77.8687 20.0049V20.8621H67.9489V19.0495H75.48C75.48 18.4172 75.3536 17.8411 75.0867 17.3493C74.8337 16.8575 74.4685 16.4642 73.9907 16.1691C73.527 15.8881 72.9791 15.7335 72.3468 15.7335C71.6583 15.7335 71.0681 15.9022 70.5624 16.2393C70.0565 16.5766 69.6631 17.0122 69.3961 17.5321C69.1292 18.066 68.9887 18.6421 68.9887 19.2603V20.6793C68.9887 21.5084 69.1292 22.2249 69.4383 22.801C69.7333 23.3911 70.1408 23.8267 70.6748 24.1359C71.2087 24.4449 71.8269 24.5995 72.5294 24.5995C72.9931 24.5995 73.4146 24.5292 73.7939 24.4028C74.1733 24.2764 74.4966 24.0655 74.7775 23.8127C75.0586 23.5458 75.2693 23.2226 75.4098 22.8291L77.7141 23.2366C77.5315 23.911 77.1943 24.5011 76.7306 25.007C76.2529 25.5128 75.6628 25.9063 74.9461 26.1872C74.2436 26.4683 73.4287 26.6088 72.5294 26.6088Z" fill="#1F2B22"/>
<path d="M78.7539 26.3566V13.8936H81.1004V15.8747H81.2269C81.4517 15.2003 81.8592 14.6804 82.4353 14.287C83.0113 13.8936 83.6717 13.7109 84.4023 13.7109C84.5569 13.7109 84.7396 13.7109 84.9362 13.725C85.133 13.739 85.3016 13.7531 85.428 13.7671V16.0856C85.3297 16.0575 85.1611 16.0294 84.9081 15.9871C84.6553 15.959 84.4163 15.9309 84.1635 15.9309C83.5874 15.9309 83.0816 16.0575 82.6319 16.2963C82.1823 16.5351 81.8311 16.8724 81.5781 17.2939C81.3252 17.7154 81.1848 18.2071 81.1848 18.7411V26.3566H78.7539Z" fill="#1F2B22"/>
<path d="M90.9655 26.6091C89.7571 26.6091 88.7174 26.3281 87.8462 25.7802C86.9751 25.2322 86.3146 24.4735 85.8511 23.504C85.3874 22.5344 85.1484 21.4244 85.1484 20.174C85.1484 18.9093 85.3874 17.7853 85.8651 16.8158C86.3427 15.8463 87.0173 15.0876 87.8743 14.5396C88.7314 13.9917 89.7571 13.7246 90.9374 13.7246C91.8787 13.7246 92.7358 13.8932 93.4664 14.2445C94.2112 14.5958 94.8013 15.0876 95.265 15.7058C95.7286 16.3381 95.9956 17.0687 96.0799 17.9118H93.7194C93.593 17.3217 93.2979 16.8299 92.8342 16.3943C92.3705 15.9727 91.7523 15.762 90.9795 15.762C90.3051 15.762 89.715 15.9447 89.2092 16.296C88.7033 16.6472 88.3099 17.153 88.0289 17.8135C87.7479 18.4598 87.6074 19.2325 87.6074 20.1178C87.6074 21.031 87.7479 21.8179 88.0149 22.4782C88.2958 23.1386 88.6752 23.6444 89.1951 24.0098C89.7009 24.3751 90.3051 24.5578 90.9795 24.5578C91.4432 24.5578 91.8648 24.4735 92.23 24.3048C92.6094 24.1362 92.9185 23.8833 93.1855 23.5742C93.4384 23.251 93.6211 22.8717 93.7194 22.4221H96.0799C95.9956 23.2229 95.7286 23.9536 95.2931 24.5859C94.8575 25.2181 94.2674 25.724 93.5367 26.0752C92.8061 26.4265 91.9491 26.6091 90.9655 26.6091Z" fill="#1F2B22"/>
<path d="M100.956 26.6376C100.169 26.6376 99.4525 26.497 98.8061 26.202C98.1738 25.9069 97.668 25.4714 97.2887 24.9094C96.9093 24.3474 96.7266 23.6588 96.7266 22.8439C96.7266 22.1414 96.8671 21.5653 97.134 21.1016C97.4011 20.652 97.7664 20.2867 98.23 20.0197C98.6937 19.7527 99.1995 19.556 99.7756 19.4156C100.338 19.275 100.928 19.1766 101.518 19.1064C102.263 19.0221 102.867 18.9519 103.33 18.8957C103.794 18.8395 104.131 18.7411 104.342 18.6146C104.553 18.4882 104.665 18.2775 104.665 17.9824V17.9262C104.665 17.2237 104.469 16.6616 104.075 16.2822C103.682 15.9028 103.092 15.6921 102.305 15.6921C101.49 15.6921 100.844 15.8747 100.38 16.226C99.9161 16.5773 99.593 16.9847 99.4102 17.4203L97.134 16.9004C97.4011 16.1417 97.7945 15.5235 98.3283 15.0598C98.8482 14.5961 99.4525 14.2448 100.141 14.0341C100.829 13.8234 101.546 13.7109 102.291 13.7109C102.782 13.7109 103.316 13.7671 103.878 13.8796C104.44 13.992 104.96 14.2027 105.452 14.5119C105.944 14.8209 106.338 15.2565 106.661 15.8326C106.969 16.4087 107.139 17.1394 107.139 18.0526V26.3425H104.764V24.6424H104.665C104.511 24.9515 104.272 25.2606 103.963 25.5698C103.654 25.8788 103.246 26.1318 102.754 26.3285C102.234 26.5393 101.644 26.6376 100.956 26.6376ZM101.49 24.6845C102.164 24.6845 102.74 24.5581 103.218 24.2911C103.696 24.0242 104.061 23.6729 104.314 23.2514C104.567 22.8158 104.693 22.3662 104.693 21.8603V20.2586C104.609 20.3428 104.44 20.4271 104.188 20.4975C103.935 20.5677 103.668 20.638 103.344 20.6801C103.035 20.7363 102.726 20.7784 102.431 20.8206C102.136 20.8627 101.883 20.8908 101.687 20.9189C101.209 20.9751 100.787 21.0736 100.394 21.214C100 21.3545 99.6913 21.5513 99.4665 21.8182C99.2417 22.0851 99.1152 22.4224 99.1152 22.858C99.1152 23.4621 99.34 23.9118 99.7756 24.2208C100.239 24.53 100.801 24.6845 101.49 24.6845Z" fill="#1F2B22"/>
<path d="M114.346 13.8931V15.8462H107.531V13.8931H114.346ZM109.359 10.9004H111.789V22.7029C111.789 23.1807 111.86 23.532 112 23.7568C112.141 23.9957 112.323 24.1502 112.548 24.2345C112.772 24.3188 113.011 24.3609 113.279 24.3609C113.475 24.3609 113.644 24.3469 113.784 24.3188C113.925 24.2907 114.038 24.2766 114.122 24.2485L114.557 26.2578C114.417 26.314 114.22 26.3702 113.952 26.4264C113.686 26.4826 113.363 26.5107 112.983 26.5247C112.351 26.5388 111.747 26.4264 111.199 26.1875C110.651 25.9487 110.201 25.5833 109.864 25.0775C109.527 24.5858 109.359 23.9534 109.359 23.1947V10.9004Z" fill="#1F2B22"/>
<path d="M120.301 26.6091C119.135 26.6091 118.11 26.3422 117.238 25.8083C116.366 25.2743 115.693 24.5156 115.201 23.5602C114.709 22.6047 114.484 21.4666 114.484 20.188C114.484 18.8953 114.723 17.7572 115.201 16.7877C115.678 15.8182 116.353 15.0595 117.238 14.5256C118.11 13.9917 119.135 13.7246 120.301 13.7246C121.468 13.7246 122.493 13.9917 123.364 14.5256C124.235 15.0595 124.91 15.8182 125.388 16.7877C125.865 17.7572 126.104 18.8953 126.104 20.188C126.104 21.4806 125.865 22.6047 125.388 23.5602C124.91 24.5156 124.235 25.2743 123.364 25.8083C122.493 26.3422 121.468 26.6091 120.301 26.6091ZM120.315 24.5718C121.074 24.5718 121.706 24.3751 122.198 23.9677C122.69 23.5602 123.069 23.0403 123.308 22.3659C123.546 21.7055 123.673 20.9607 123.673 20.1599C123.673 19.359 123.546 18.6284 123.308 17.968C123.069 17.2936 122.703 16.7596 122.198 16.3521C121.706 15.9447 121.074 15.748 120.315 15.748C119.556 15.748 118.924 15.9447 118.418 16.3521C117.913 16.7596 117.548 17.2936 117.309 17.968C117.07 18.6424 116.943 19.373 116.943 20.1599C116.943 20.9607 117.07 21.6915 117.309 22.3659C117.548 23.0262 117.926 23.5602 118.418 23.9677C118.91 24.3751 119.542 24.5718 120.315 24.5718Z" fill="#1F2B22"/>
<path d="M126.992 26.3566V13.8936H129.339V15.8747H129.465C129.689 15.2003 130.097 14.6804 130.673 14.287C131.249 13.8936 131.909 13.7109 132.641 13.7109C132.794 13.7109 132.977 13.7109 133.174 13.725C133.371 13.739 133.54 13.7531 133.666 13.7671V16.0856C133.568 16.0575 133.399 16.0294 133.146 15.9871C132.893 15.959 132.654 15.9309 132.402 15.9309C131.825 15.9309 131.32 16.0575 130.87 16.2963C130.421 16.5351 130.069 16.8724 129.816 17.2939C129.563 17.7154 129.423 18.2071 129.423 18.7411V26.3566H126.992Z" fill="#1F2B22"/>
<path d="M133.217 26.5113C132.767 26.5113 132.388 26.3568 132.078 26.0336C131.755 25.7105 131.602 25.3311 131.602 24.8815C131.602 24.4318 131.755 24.0525 132.078 23.7434C132.402 23.4202 132.782 23.2656 133.217 23.2656C133.667 23.2656 134.046 23.4202 134.369 23.7434C134.692 24.0666 134.847 24.4459 134.847 24.8815C134.847 25.1766 134.776 25.4575 134.622 25.6965C134.468 25.9493 134.271 26.146 134.032 26.2866C133.793 26.4411 133.526 26.5113 133.217 26.5113Z" fill="#1F2B22"/>
<path d="M140.804 26.6377C140.016 26.6377 139.301 26.4971 138.654 26.2021C138.022 25.9069 137.515 25.4715 137.136 24.9094C136.757 24.3474 136.574 23.6588 136.574 22.8439C136.574 22.1414 136.715 21.5654 136.982 21.1017C137.249 20.652 137.614 20.2867 138.077 20.0198C138.542 19.7527 139.047 19.5561 139.624 19.4156C140.186 19.275 140.775 19.1767 141.366 19.1064C142.11 19.0221 142.714 18.9519 143.178 18.8957C143.642 18.8395 143.979 18.7411 144.19 18.6146C144.401 18.4882 144.513 18.2775 144.513 17.9824V17.9262C144.513 17.2237 144.316 16.6617 143.923 16.2823C143.53 15.9028 142.939 15.6921 142.152 15.6921C141.337 15.6921 140.691 15.8748 140.228 16.2261C139.764 16.5774 139.441 16.9848 139.258 17.4204L136.982 16.9005C137.249 16.1418 137.643 15.5235 138.176 15.0599C138.696 14.5962 139.301 14.2449 139.989 14.0341C140.677 13.8234 141.394 13.7109 142.138 13.7109C142.63 13.7109 143.164 13.7671 143.726 13.8796C144.288 13.992 144.808 14.2027 145.299 14.5119C145.792 14.8209 146.185 15.2565 146.508 15.8326C146.817 16.4087 146.986 17.1394 146.986 18.0526V26.3425H144.611V24.6424H144.513C144.358 24.9516 144.119 25.2606 143.81 25.5698C143.502 25.8788 143.094 26.1318 142.603 26.3285C142.083 26.5393 141.492 26.6377 140.804 26.6377ZM141.337 24.6846C142.012 24.6846 142.588 24.5581 143.066 24.2911C143.544 24.0242 143.909 23.6729 144.162 23.2514C144.414 22.8158 144.542 22.3662 144.542 21.8604V20.2586C144.456 20.3429 144.288 20.4273 144.035 20.4975C143.783 20.5677 143.515 20.638 143.192 20.6801C142.883 20.7363 142.574 20.7785 142.279 20.8206C141.984 20.8628 141.731 20.8909 141.534 20.9189C141.056 20.9751 140.635 21.0736 140.242 21.2141C139.848 21.3545 139.539 21.5513 139.314 21.8182C139.089 22.0851 138.963 22.4224 138.963 22.858C138.963 23.4622 139.188 23.9118 139.624 24.2209C140.087 24.53 140.649 24.6846 141.337 24.6846Z" fill="#1F2B22"/>
<path d="M150.051 11.9686C149.629 11.9686 149.264 11.8282 148.969 11.5471C148.674 11.2661 148.52 10.9289 148.52 10.5214C148.52 10.114 148.674 9.77676 148.969 9.49573C149.264 9.21472 149.629 9.07422 150.051 9.07422C150.472 9.07422 150.837 9.21472 151.133 9.49573C151.428 9.77676 151.583 10.128 151.583 10.5214C151.583 10.9148 151.428 11.2521 151.133 11.5471C150.837 11.8141 150.472 11.9686 150.051 11.9686ZM148.828 26.3566V13.8936H151.26V26.3706H148.828V26.3566Z" fill="#1F2B22"/>
<path d="M44.1441 36.4289L23.9237 1.40906C23.8571 1.29371 23.7614 1.1979 23.646 1.13125C23.5308 1.0646 23.3999 1.02943 23.2667 1.0293H21.1648C21.0312 1.0291 20.9 1.0641 20.7844 1.13078C20.6687 1.19745 20.5726 1.29343 20.5058 1.40906L0.332849 36.1194C0.222295 36.3097 0.164062 36.5258 0.164062 36.7459C0.164062 36.9661 0.222295 37.1823 0.332849 37.3726L1.13415 38.7626C1.24392 38.9518 1.40148 39.1091 1.5911 39.2184C1.78072 39.3276 1.99572 39.3852 2.21458 39.3853H42.4353C42.5688 39.3855 42.6999 39.3506 42.8156 39.2838C42.9313 39.2172 43.0274 39.1212 43.0941 39.0055L44.1441 37.1846C44.2101 37.0696 44.2449 36.9393 44.2449 36.8068C44.2449 36.6742 44.2101 36.5438 44.1441 36.4289ZM35.7381 36.727H5.60776C5.60776 36.727 7.71544 35.6655 8.41609 35.2953L12.4264 33.1801C12.5414 33.1206 12.6431 33.0383 12.7251 32.9381C12.8071 32.8378 12.8677 32.7219 12.9033 32.5974C12.9389 32.473 12.9486 32.3425 12.9319 32.2141C12.9152 32.0857 12.8724 31.9621 12.8061 31.8509L12.4264 31.1957C12.303 30.9845 12.1028 30.829 11.8675 30.7618C11.6323 30.6946 11.38 30.7208 11.1637 30.835L4.57291 34.3212L19.433 8.58088C19.5164 8.43552 19.6454 8.32181 19.8001 8.25744C19.9549 8.19308 20.1265 8.18167 20.2884 8.22501C20.4501 8.26835 20.5932 8.36399 20.695 8.49704C20.7969 8.63009 20.8518 8.79308 20.8514 8.96064V25.2791C20.8514 25.4175 20.8135 25.5533 20.7419 25.6717C20.6703 25.7903 20.5676 25.8869 20.4451 25.9512L14.6499 29.0084L15.9943 31.3039L21.8312 28.2261C21.9399 28.1691 22.0608 28.1394 22.1834 28.1394C22.3061 28.1394 22.427 28.1691 22.5357 28.2261L36.0894 35.2972C36.2385 35.3766 36.3568 35.5034 36.4257 35.6577C36.4946 35.8119 36.5101 35.9847 36.4698 36.1487C36.4295 36.3128 36.3357 36.4587 36.2032 36.5634C36.0707 36.6682 35.907 36.7257 35.7381 36.727ZM37.4984 33.0319L23.9161 25.9436C23.7933 25.8791 23.6905 25.7822 23.6188 25.6633C23.5472 25.5445 23.5095 25.4084 23.5097 25.2695V8.83722C23.51 8.67027 23.5654 8.50807 23.6671 8.3757C23.7689 8.24333 23.9114 8.14818 24.0726 8.10495C24.2338 8.06171 24.4049 8.07282 24.5592 8.13653C24.7135 8.20026 24.8426 8.31305 24.9263 8.45746L38.5085 31.9799C38.5921 32.1225 38.627 32.2884 38.6077 32.4525C38.5886 32.6166 38.5164 32.7699 38.4021 32.8893C38.2879 33.0088 38.1379 33.0876 37.9748 33.1141C37.8116 33.1405 37.6444 33.1129 37.4984 33.0357V33.0319Z" fill="#1F2B22"/>
<g filter="url(#filter0_d_22_2)">
<path d="M20.1959 39.5091H2.05271C1.84959 39.5086 1.65019 39.4545 1.47477 39.3521C1.29935 39.2498 1.15415 39.1027 1.05393 38.9261L0.178578 37.3918C0.0769371 37.2154 0.0234375 37.0154 0.0234375 36.8118C0.0234375 36.6081 0.0769371 36.4081 0.178578 36.2317L9.24921 20.6614C9.35122 20.4881 9.49664 20.3444 9.67113 20.2445C9.84561 20.1446 10.0431 20.092 10.2442 20.0918H11.993C12.1941 20.0918 12.3917 20.1444 12.5662 20.2443C12.7407 20.3442 12.8861 20.488 12.988 20.6614L22.0605 36.2317C22.1627 36.4079 22.2165 36.608 22.2165 36.8118C22.2165 37.0155 22.1627 37.2156 22.0605 37.3918L21.187 38.9261C21.0875 39.1017 20.9435 39.2479 20.7695 39.3502C20.5956 39.4525 20.3977 39.5073 20.1959 39.5091ZM5.10031 36.7273H17.1502C17.3492 36.7254 17.5444 36.6714 17.7161 36.5706C17.8878 36.4699 18.0301 36.3259 18.1288 36.1531C18.2276 35.9801 18.2793 35.7844 18.2788 35.5853C18.2784 35.3862 18.2258 35.1907 18.1262 35.0183L12.0993 24.6698C12.0007 24.4986 11.8588 24.3564 11.6878 24.2576C11.5168 24.1587 11.3227 24.1067 11.1252 24.1067C10.9277 24.1067 10.7337 24.1587 10.5627 24.2576C10.3917 24.3564 10.2497 24.4986 10.1511 24.6698L4.1547 35.062C4.04915 35.2281 3.9908 35.4198 3.98592 35.6165C3.98104 35.8133 4.0298 36.0077 4.12699 36.1788C4.22417 36.35 4.36611 36.4915 4.53757 36.588C4.70904 36.6846 4.90357 36.7327 5.10031 36.7273Z" fill="#1F2B22"/>
</g>
</g>
</g>
</g>
</g>
<defs>
<filter id="filter0_d_22_2" x="-129.45" y="-109.382" width="281.139" height="278.365" filterUnits="userSpaceOnUse" color-interpolation-filters="sRGB">
<feFlood flood-opacity="0" result="BackgroundImageFix"/>
<feColorMatrix in="SourceAlpha" type="matrix" values="0 0 0 0 0 0 0 0 0 0 0 0 0 0 0 0 0 0 127 0" result="hardAlpha"/>
<feOffset/>
<feGaussianBlur stdDeviation="64.7368"/>
<feColorMatrix type="matrix" values="0 0 0 0 0.968627 0 0 0 0 0.960784 0 0 0 0 0.929412 0 0 0 0.5 0"/>
<feBlend mode="normal" in2="BackgroundImageFix" result="effect1_dropShadow_22_2"/>
<feBlend mode="normal" in="SourceGraphic" in2="effect1_dropShadow_22_2" result="shape"/>
</filter>
<clipPath id="clip0_22_2">
<rect width="151.58" height="40" fill="#172C29"/>
</clipPath>
<clipPath id="clip1_22_2">
<rect width="151.58" height="40" fill="#172C29"/>
</clipPath>
<clipPath id="clip2_22_2">
<rect width="151.579" height="40" fill="#172C29"/>
</clipPath>
</defs>
</svg>
